15_ID_stride5.mot
nRows=12
nColumns=38

name 15_ID_stride5.mot
datacolumns 38
datarows 12
range 3.4850000000 3.5400000000
endheader
time	pelvis_tilt_moment	pelvis_list_moment	pelvis_rotation_moment	pelvis_tx_force	pelvis_ty_force	pelvis_tz_force	hip_flexion_r_moment	hip_adduction_r_moment	hip_rotation_r_moment	knee_angle_r_moment	ankle_angle_r_moment	subtalar_angle_r_moment	mtp_angle_r_moment	hip_flexion_l_moment	hip_adduction_l_moment	hip_rotation_l_moment	knee_angle_l_moment	ankle_angle_l_moment	subtalar_angle_l_moment	mtp_angle_l_moment	lumbar_extension_moment	lumbar_bending_moment	lumbar_rotation_moment	arm_flex_r_moment	arm_add_r_moment	arm_rot_r_moment	elbow_flex_r_moment	pro_sup_r_moment	wrist_flex_r_moment	wrist_dev_r_moment	arm_flex_l_moment	arm_add_l_moment	arm_rot_l_moment	elbow_flex_l_moment	pro_sup_l_moment	wrist_flex_l_moment	wrist_dev_l_moment
        3.4850000000	       -1.9841853008	       -6.8902868552	      -18.9158730865	       59.1605661285	      -28.0343939480	       -5.3891112383	      -10.8014004540	      -30.5902204669	        1.8746413470	      -11.3526721103	     -166.4274858437	       34.1724142796	       -0.0582110653	       -8.4348708496	        4.5067523884	       -2.8629730721	       -2.1470022301	        1.6049265980	        0.0252185697	        0.0756183585	       26.3253941121	        5.0163647074	      -36.5520252256	       -0.1466645149	       -2.4801450073	       -3.4472807243	        4.0852711051	       -0.1935598890	       -0.3034069281	       -0.4289089554	        6.9402686953	        5.4868723541	        3.9729967031	        4.3420067034	        0.0330180412	        0.5069793805	       -0.2764694748	
        3.4900000000	        4.6224931234	      -17.4982510371	      -15.8160936758	       78.8096297599	       -8.5597841238	       11.9671944251	      -13.2422804296	      -28.4374971303	        3.3040582190	      -18.4974038814	     -148.8442838036	       30.7384560586	       -0.0632867004	       -9.7445707955	        7.1369171576	       -3.7775631894	       -2.5279498156	        1.8252318811	        0.0146252185	        0.0957054781	       21.8565589900	        4.6141980352	      -34.3595773004	       -0.4070566060	       -2.5222053291	       -3.3193445008	        3.5444039262	       -0.1777934471	       -0.2963466231	       -0.3767764280	        6.2413396642	        5.1823825580	        3.7757296558	        3.7831780949	        0.0375648645	        0.4732043807	       -0.2313510614	
        3.4950000000	        8.2955308299	      -18.4371168023	      -11.4959044106	       93.5427104258	        5.0014150500	       31.3854415496	      -10.9269426134	      -25.7785261369	        4.1400101450	      -19.7228312505	     -129.7560310906	       26.7991435624	       -0.0631009377	      -11.7728413722	        8.8673013307	       -3.9335844396	       -3.2740259908	        2.0479426035	       -0.0233614919	        0.1166809514	       18.0457819921	        4.9897182417	      -31.3534897250	       -0.7879901703	       -2.4456760296	       -3.0407626144	        2.9290749277	       -0.1570988123	       -0.2776449456	       -0.3155827187	        5.3112016256	        4.6958998537	        3.4680773634	        3.1739336033	        0.0407089775	        0.4280698259	       -0.1837639464	
        3.5000000000	        7.9422392524	      -13.1171975856	       -9.4281226594	       95.9575297276	        5.3467726755	       46.8648308715	       -0.8461109568	      -20.3290706447	        3.4427122010	      -18.0171157274	     -108.8058995275	       22.6160870565	       -0.0584186069	      -14.3313158846	        9.1948058411	       -3.7841261756	       -4.1817926311	        2.2632675025	       -0.0943785999	        0.1369968084	       14.7768482215	        6.1793133872	      -27.7222441067	       -1.2629983228	       -2.1803946498	       -2.6283483606	        2.2380416854	       -0.1317809207	       -0.2472908518	       -0.2459531888	        4.2282149061	        4.0041007047	        3.0430073755	        2.5195482026	        0.0418233215	        0.3715700115	       -0.1345854447	
        3.5050000000	        2.1502199861	        5.6280673606	       -8.7938433615	       88.9553322544	      -11.7841180734	       57.4450994667	       16.6790141476	      -10.4869058698	       -0.7819650835	       -9.4051030476	      -86.8990015315	       18.6152906372	       -0.0436506156	      -17.0570220557	        8.7658991743	       -2.9088524756	       -5.0477802883	        2.4667541397	       -0.1880279261	        0.1558671039	       11.8003773642	        7.7455184167	      -23.6531515445	       -1.7787732172	       -1.7340025446	       -2.1003248006	        1.4869216814	       -0.1027508363	       -0.2077616997	       -0.1699616299	        3.0796987642	        3.1143080516	        2.5063805758	        1.8338607525	        0.0420740554	        0.3049594012	       -0.0849699930	
        3.5100000000	       -5.3030904110	       24.2440716538	       -8.9813646170	       71.5462056819	      -47.4919176979	       62.4960649329	       32.6121725927	        0.0736031319	       -5.3771289232	       -1.9708155763	      -67.0741427223	       15.5824347976	       -0.0195743863	      -19.3430763760	        7.4501424242	       -1.8580606934	       -5.6124952009	        2.6500267682	       -0.2855661602	        0.1720522074	        8.6667551580	        9.0959590762	      -19.3500830137	       -2.2458655146	       -1.1475267332	       -1.4930141154	        0.7071972920	       -0.0714691886	       -0.1621843444	       -0.0911205084	        1.9879255111	        2.0639751335	        1.8754279429	        1.1420679557	        0.0404309252	        0.2302242481	       -0.0371218753	
        3.5150000000	       -9.8830694073	       33.8574017033	       -8.0259921770	       47.7452683113	      -97.4011164332	       62.9405723821	       37.4860034703	        6.6680573466	       -6.5167286127	       -1.3923203658	      -51.4159345084	       13.2504862579	        0.0158035106	      -20.8778022537	        5.6673335207	       -0.8132259041	       -5.6728141398	        2.8015469361	       -0.3703347612	        0.1848168818	        5.1392287617	        9.9001752263	      -14.9295819400	       -2.6023023578	       -0.4321694497	       -0.8285089378	       -0.0576575760	       -0.0393562003	       -0.1118929811	       -0.0134209592	        1.0246944837	        0.8904190610	        1.1675124763	        0.4802445811	        0.0365591765	        0.1496569244	        0.0062914800	
        3.5200000000	       -9.8917723963	       33.9925326272	       -4.6306573112	       22.9155911302	     -148.6850041749	       61.2161154874	       35.6402919041	        7.3880724756	       -5.5387786308	       -4.3754261675	      -40.1895023729	       10.9495901975	        0.0620232288	      -21.1889655135	        4.0385030577	       -0.0497072542	       -5.5678957722	        2.9165736358	       -0.4240271871	        0.1939671100	        1.1977052381	       10.0301946885	      -10.5256812115	       -2.8000081303	        0.3733964443	       -0.1376624313	       -0.7500209240	       -0.0082621831	       -0.0586264546	        0.0580972305	        0.2334958381	       -0.3411722835	        0.4165668108	       -0.1031648471	        0.0302244534	        0.0671075550	        0.0419777805	
        3.5250000000	       -5.3067094519	       25.7965104884	        0.4129786842	       -0.9408690206	     -185.3705932030	       52.7672578572	       24.8194794675	        3.9131384916	       -0.9424088002	      -12.6462682641	      -32.1939592706	        8.1917550112	        0.1175024380	      -20.8741694377	        3.0671431412	        0.2262187233	       -5.3672481848	        2.9867134675	       -0.4401417017	        0.1993115578	       -2.9120387678	        9.7819527819	       -6.2482600372	       -2.8535941270	        1.2333381084	        0.5548627147	       -1.3147054609	        0.0201363087	       -0.0034869462	        0.1187724970	       -0.3818358069	       -1.5665948854	       -0.3416475805	       -0.5607401396	        0.0211530464	       -0.0133683871	        0.0665018871	
        3.5300000000	        0.8555436223	       13.8776182219	        4.0455861350	      -23.8047451176	     -199.4192913089	       38.0429908026	       13.3066146897	       -0.2229090373	        3.1363258233	      -20.1589538448	      -25.9370107242	        5.0647924331	        0.1787944582	      -19.8059286428	        2.8013910768	        0.1391967070	       -5.3694121390	        3.0120388075	       -0.4190757135	        0.2012445941	       -6.7042202032	        9.2113102613	       -2.2271579996	       -2.7861212825	        2.1051296575	        1.2227201705	       -1.6933712002	        0.0441364341	        0.0522975889	        0.1639221702	       -0.8361732144	       -2.7142832535	       -1.0644934536	       -0.8369802474	        0.0093221573	       -0.0870524556	        0.0775789476	
        3.5350000000	        4.0816156811	        2.0063890953	        3.9242075947	      -46.9993492553	     -176.6609009861	       19.6927076109	        5.0530239525	        0.5344273542	        4.3276246796	      -24.4666834118	      -20.6318795329	        2.5669840083	        0.2416157747	      -18.8509519182	        3.5565286337	       -0.4513808711	       -6.1885364994	        2.9784061832	       -0.3564431499	        0.1990997348	       -9.7470042920	        8.7094313508	        1.4310105722	       -2.6171949846	        2.9482484672	        1.8440980378	       -1.8669290093	        0.0629131609	        0.1073567984	        0.1933482152	       -1.1636232689	       -3.7303322124	       -1.7169680230	       -0.9079200723	       -0.0048519915	       -0.1505035314	        0.0728043244	
        3.5400000000	        3.5301632762	        0.4765135493	        3.4966973861	      -69.8315422997	     -116.5413760646	      -12.3812071749	        7.6810862572	        4.9793842617	        4.5628530106	      -21.3560493853	      -10.3170877743	        0.8565076592	        0.2998538267	      -18.2302769622	        4.8622101038	       -1.2962553580	       -7.6863306851	        2.9139748102	       -0.2719516659	        0.1945274368	      -11.6690151867	        8.4100800444	        4.5139309865	       -2.4068492727	        3.6918158986	        2.3764008122	       -1.8653327162	        0.0754559489	        0.1575769302	        0.2006836886	       -1.3870745125	       -4.5429716492	       -2.2508818877	       -0.8694219403	       -0.0196724133	       -0.1994694901	        0.0604142682	
